<svg id="Layer_1" data-name="Layer 1" xmlns="http://www.w3.org/2000/svg" width="240" height="240" viewBox="0 0 240 240">
  <title>ICONS Sets_v3</title>
  <g id="Virus">
    <g id="Virus-2" data-name="Virus">
      <g>
        <path d="M118,50.58a68,68,0,0,1,48.24,20,68.13,68.13,0,0,1,16.92,28,71.12,71.12,0,0,1,1.89,7.63A68.11,68.11,0,0,1,166.24,167a70.35,70.35,0,0,1-28,16.92A68.23,68.23,0,1,1,118,50.58Z" style="fill: none;stroke: #000000;stroke-linecap: round;stroke-linejoin: round;stroke-width: 4px"/>
        <circle cx="102.23" cy="143.82" r="17.77" style="fill: none;stroke: #000000;stroke-linecap: round;stroke-linejoin: round;stroke-width: 4px"/>
        <circle cx="143.33" cy="137.49" r="11.44" style="fill: none;stroke: #000000;stroke-linecap: round;stroke-linejoin: round;stroke-width: 4px"/>
        <circle cx="129.94" cy="94.65" r="22.76" style="fill: none;stroke: #000000;stroke-linecap: round;stroke-linejoin: round;stroke-width: 4px"/>
      </g>
      <g id="virus-3" data-name="virus">
        <path d="M120,50.65V37.76" style="fill: none;stroke: #000000;stroke-linecap: round;stroke-linejoin: round;stroke-width: 4px"/>
        <path d="M120,201.44V187" style="fill: none;stroke: #000000;stroke-linecap: round;stroke-linejoin: round;stroke-width: 4px"/>
        <line x1="187.93" y1="119.6" x2="201.84" y2="119.6" style="fill: none;stroke: #000000;stroke-linecap: round;stroke-linejoin: round;stroke-width: 4px"/>
        <path d="M69.9,69.5l-7.77-7.77" style="fill: none;stroke: #000000;stroke-linecap: round;stroke-linejoin: round;stroke-width: 4px"/>
        <path d="M177.87,177.47q-5.33-5.31-10.63-10.63" style="fill: none;stroke: #000000;stroke-linecap: round;stroke-linejoin: round;stroke-width: 4px"/>
        <path d="M167.52,72.08l10.35-10.35" style="fill: none;stroke: #000000;stroke-linecap: round;stroke-linejoin: round;stroke-width: 4px"/>
        <path d="M62.13,177.47l9-9" style="fill: none;stroke: #000000;stroke-linecap: round;stroke-linejoin: round;stroke-width: 4px"/>
        <line x1="43.98" y1="149.92" x2="55.18" y2="145.45" style="fill: none;stroke: #000000;stroke-linecap: round;stroke-linejoin: round;stroke-width: 4px"/>
        <path d="M55.1,91.71,44.81,87.29" style="fill: none;stroke: #000000;stroke-linecap: round;stroke-linejoin: round;stroke-width: 4px"/>
        <path d="M195.19,151.91l-13.65-5.86" style="fill: none;stroke: #000000;stroke-linecap: round;stroke-linejoin: round;stroke-width: 4px"/>
        <path d="M147,56.76l5.3-12.35" style="fill: none;stroke: #000000;stroke-linecap: round;stroke-linejoin: round;stroke-width: 4px"/>
        <path d="M87.69,194.79l5.18-12.07" style="fill: none;stroke: #000000;stroke-linecap: round;stroke-linejoin: round;stroke-width: 4px"/>
        <path d="M38.16,119.6H48.61" style="fill: none;stroke: #000000;stroke-linecap: round;stroke-linejoin: round;stroke-width: 4px"/>
        <path d="M93.57,53.34q-1.93-4.87-3.89-9.76" style="fill: none;stroke: #000000;stroke-linecap: round;stroke-linejoin: round;stroke-width: 4px"/>
        <path d="M150.32,195.62c-2-5.08-3.48-8.73-5.5-13.8" style="fill: none;stroke: #000000;stroke-linecap: round;stroke-linejoin: round;stroke-width: 4px"/>
        <path d="M181.79,95,196,89.28" style="fill: none;stroke: #000000;stroke-linecap: round;stroke-linejoin: round;stroke-width: 4px"/>
        <path d="M158,62.55l7.38-11.08" style="fill: none;stroke: #000000;stroke-linecap: round;stroke-linejoin: round;stroke-width: 4px"/>
        <path d="M74.66,187.73q3.34-5,6.67-10" style="fill: none;stroke: #000000;stroke-linecap: round;stroke-linejoin: round;stroke-width: 4px"/>
        <line x1="176.89" y1="84.34" x2="187.94" y2="75.3" style="fill: none;stroke: #000000;stroke-linecap: round;stroke-linejoin: round;stroke-width: 4px"/>
        <path d="M51,105.06l-11.07-2.33" style="fill: none;stroke: #000000;stroke-linecap: round;stroke-linejoin: round;stroke-width: 4px"/>
        <path d="M200.08,136.47l-15.22-3.21" style="fill: none;stroke: #000000;stroke-linecap: round;stroke-linejoin: round;stroke-width: 4px"/>
        <path d="M187.93,165.24c-3.62-2.44-6.75-4.21-12.54-8.1" style="fill: none;stroke: #000000;stroke-linecap: round;stroke-linejoin: round;stroke-width: 4px"/>
        <path d="M134.2,52.17l2.67-12.65" style="fill: none;stroke: #000000;stroke-linecap: round;stroke-linejoin: round;stroke-width: 4px"/>
        <path d="M103.13,199.68q1.4-6.63,2.8-13.27" style="fill: none;stroke: #000000;stroke-linecap: round;stroke-linejoin: round;stroke-width: 4px"/>
        <path d="M106.25,51.15l-2.37-11.78" style="fill: none;stroke: #000000;stroke-linecap: round;stroke-linejoin: round;stroke-width: 4px"/>
        <path d="M136.12,199.84c-1-5.05-1.68-8.38-2.7-13.43" style="fill: none;stroke: #000000;stroke-linecap: round;stroke-linejoin: round;stroke-width: 4px"/>
        <path d="M186.22,106.3l14-2.82" style="fill: none;stroke: #000000;stroke-linecap: round;stroke-linejoin: round;stroke-width: 4px"/>
        <path d="M39.76,135.72l11.07-2.22" style="fill: none;stroke: #000000;stroke-linecap: round;stroke-linejoin: round;stroke-width: 4px"/>
        <path d="M60.91,80.28l-9-6" style="fill: none;stroke: #000000;stroke-linecap: round;stroke-linejoin: round;stroke-width: 4px"/>
        <path d="M51.45,164.3l9.46-6.17" style="fill: none;stroke: #000000;stroke-linecap: round;stroke-linejoin: round;stroke-width: 4px"/>
        <path d="M81.08,59.9,75.3,51.05" style="fill: none;stroke: #000000;stroke-linecap: round;stroke-linejoin: round;stroke-width: 4px"/>
        <path d="M164.7,188.16l-8.27-12.68" style="fill: none;stroke: #000000;stroke-linecap: round;stroke-linejoin: round;stroke-width: 4px"/>
        <path d="M81.08,59.9,75.3,51.05" style="fill: none;stroke: #000000;stroke-linecap: round;stroke-linejoin: round;stroke-width: 4px"/>
        <path d="M164.7,188.16l-8.27-12.68" style="fill: none;stroke: #000000;stroke-linecap: round;stroke-linejoin: round;stroke-width: 4px"/>
      </g>
    </g>
  </g>
</svg>
